<svg width="64" height="64" viewBox="0 0 64 64" fill="none" xmlns="http://www.w3.org/2000/svg">
<rect x="1.33333" y="1.33333" width="61.3333" height="61.3333" rx="14.6667" stroke="#18A0FB" stroke-width="2.66667"/>
<path d="M47.0907 41L27.5 21.4093C27.0714 21.0002 26.5017 20.772 25.9092 20.772C25.3168 20.772 24.7471 21.0002 24.3185 21.4093L21.4092 24.3185C20.988 24.7407 20.7514 25.3128 20.7514 25.9093C20.7514 26.5057 20.988 27.0778 21.4092 27.5L40.9989 47.0908C41.4211 47.512 41.9932 47.7486 42.5896 47.7486C43.1861 47.7486 43.7581 47.512 44.1804 47.0908L47.0907 44.1815C47.5126 43.7596 47.7495 43.1874 47.7495 42.5908C47.7495 41.9941 47.5126 41.4219 47.0907 41V41ZM23 25.9093L25.9092 23L31.5342 28.625L28.6239 31.5354L22.9989 25.9104L23 25.9093Z" fill="#F5F5F5"/>
<path d="M16.25 32L18.5 29.75L20.75 32L18.5 34.25L16.25 32Z" fill="#F5F5F5"/>
<path d="M29.75 18.5L32 16.25L34.25 18.5L32 20.75L29.75 18.5Z" fill="#F5F5F5"/>
<path d="M16.25 18.5L18.5 16.25L20.75 18.5L18.5 20.75L16.25 18.5Z" fill="#F5F5F5"/>
</svg>
