<svg width="36" height="36" viewBox="0 0 36 36" fill="none" xmlns="http://www.w3.org/2000/svg">
<path d="M18 10.7895C14.0097 10.7895 10.7894 14.0098 10.7894 18C10.7894 21.9903 14.0097 25.2106 18 25.2106C21.9902 25.2106 25.2105 21.9903 25.2105 18C25.2105 14.0098 21.9902 10.7895 18 10.7895ZM18 22.6863C15.4195 22.6863 13.3137 20.5805 13.3137 18C13.3137 15.4195 15.4195 13.3137 18 13.3137C20.5805 13.3137 22.6863 15.4195 22.6863 18C22.6863 20.5805 20.5805 22.6863 18 22.6863ZM25.5058 8.81369C24.5742 8.81369 23.8219 9.56604 23.8219 10.4977C23.8219 11.4293 24.5742 12.1817 25.5058 12.1817C26.4375 12.1817 27.1898 11.4328 27.1898 10.4977C27.1901 10.2765 27.1467 10.0574 27.0622 9.85291C26.9777 9.64848 26.8536 9.46273 26.6972 9.3063C26.5408 9.14987 26.355 9.02584 26.1506 8.94131C25.9462 8.85678 25.7271 8.81341 25.5058 8.81369ZM32.0555 18C32.0555 16.0594 32.073 14.1363 31.9641 12.1992C31.8551 9.94924 31.3418 7.95236 29.6965 6.30705C28.0476 4.65822 26.0543 4.14846 23.8043 4.03947C21.8637 3.93049 19.9406 3.94807 18.0035 3.94807C16.0629 3.94807 14.1398 3.93049 12.2027 4.03947C9.95272 4.14846 7.95584 4.66174 6.31053 6.30705C4.6617 7.95588 4.15194 9.94924 4.04295 12.1992C3.93397 14.1399 3.95155 16.0629 3.95155 18C3.95155 19.9371 3.93397 21.8637 4.04295 23.8008C4.15194 26.0508 4.66522 28.0477 6.31053 29.693C7.95936 31.3418 9.95272 31.8516 12.2027 31.9606C14.1433 32.0695 16.0664 32.052 18.0035 32.052C19.9441 32.052 21.8672 32.0695 23.8043 31.9606C26.0543 31.8516 28.0512 31.3383 29.6965 29.693C31.3453 28.0442 31.8551 26.0508 31.9641 23.8008C32.0765 21.8637 32.0555 19.9406 32.0555 18ZM28.9617 26.2899C28.7051 26.9297 28.3957 27.4078 27.9 27.9C27.4043 28.3957 26.9297 28.7051 26.2898 28.9617C24.4406 29.6965 20.0496 29.5313 18 29.5313C15.9504 29.5313 11.5558 29.6965 9.70662 28.9653C9.06678 28.7086 8.58866 28.3992 8.09647 27.9035C7.60077 27.4078 7.29139 26.9332 7.03475 26.2934C6.3035 24.4406 6.46873 20.0496 6.46873 18C6.46873 15.9504 6.3035 11.5559 7.03475 9.70666C7.29139 9.06682 7.60077 8.58869 8.09647 8.0965C8.59217 7.60432 9.06678 7.29143 9.70662 7.03479C11.5558 6.30354 15.9504 6.46877 18 6.46877C20.0496 6.46877 24.4441 6.30354 26.2933 7.03479C26.9332 7.29143 27.4113 7.6008 27.9035 8.0965C28.3992 8.59221 28.7086 9.06682 28.9652 9.70666C29.6965 11.5559 29.5312 15.9504 29.5312 18C29.5312 20.0496 29.6965 24.4406 28.9617 26.2899Z" fill="#F5F5F5"/>
</svg>
