<svg width="129" height="32" viewBox="0 0 129 32" fill="none" xmlns="http://www.w3.org/2000/svg">
<mask id="path-1-inside-1" fill="white">
<path fill-rule="evenodd" clip-rule="evenodd" d="M30.7692 0H1.23078V1.23077H7.62939e-06V6.15382H1.23078V7.38459H7.62939e-06V7.38461H32L30.7692 7.38459V6.15382H32V1.23077H30.7692V0ZM46.5826 1.26282H34.0505V31H46.5826C49.7262 31 52.5158 30.3769 54.9514 29.1308C57.3871 27.8847 59.2704 26.1429 60.6015 23.9056C61.9609 21.6399 62.6406 19.0485 62.6406 16.1314C62.6406 13.2143 61.9609 10.6371 60.6015 8.39974C59.2704 6.13405 57.3871 4.37814 54.9514 3.13201C52.5158 1.88588 49.7262 1.26282 46.5826 1.26282ZM52.6574 25.9022C50.8449 26.8368 48.735 27.3041 46.3277 27.3041H38.2986V4.95872H46.3277C48.735 4.95872 50.8449 5.42602 52.6574 6.36062C54.4983 7.29522 55.9144 8.61215 56.9056 10.3114C57.8968 11.9824 58.3925 13.9224 58.3925 16.1314C58.3925 18.3405 57.8968 20.2946 56.9056 21.9939C55.9144 23.6648 54.4983 24.9676 52.6574 25.9022ZM73.3958 1.26282H69.1476V31H73.3958V1.26282ZM78.008 4.95872H88.2037V31H92.4093V4.95872H102.605V1.26282H78.008V4.95872ZM128.812 31V27.3041H111.48V17.7032H126.391V14.0923H111.48V4.95872H128.218V1.26282H107.232V31H128.812ZM7.62939e-06 18.4615V13.5385H1.23078V12.3077L30.7692 12.3077V13.5385H32V18.4615H30.7692V19.6923L32 19.6923H7.62939e-06V19.6923H1.23078V18.4615H7.62939e-06ZM7.62939e-06 25.8461V30.7692H1.23078V32H30.7692V30.7692H32V25.8461H30.7692V24.6153L1.23078 24.6154V25.8461H7.62939e-06Z"/>
</mask>
<path fill-rule="evenodd" clip-rule="evenodd" d="M30.7692 0H1.23078V1.23077H7.62939e-06V6.15382H1.23078V7.38459H7.62939e-06V7.38461H32L30.7692 7.38459V6.15382H32V1.23077H30.7692V0ZM46.5826 1.26282H34.0505V31H46.5826C49.7262 31 52.5158 30.3769 54.9514 29.1308C57.3871 27.8847 59.2704 26.1429 60.6015 23.9056C61.9609 21.6399 62.6406 19.0485 62.6406 16.1314C62.6406 13.2143 61.9609 10.6371 60.6015 8.39974C59.2704 6.13405 57.3871 4.37814 54.9514 3.13201C52.5158 1.88588 49.7262 1.26282 46.5826 1.26282ZM52.6574 25.9022C50.8449 26.8368 48.735 27.3041 46.3277 27.3041H38.2986V4.95872H46.3277C48.735 4.95872 50.8449 5.42602 52.6574 6.36062C54.4983 7.29522 55.9144 8.61215 56.9056 10.3114C57.8968 11.9824 58.3925 13.9224 58.3925 16.1314C58.3925 18.3405 57.8968 20.2946 56.9056 21.9939C55.9144 23.6648 54.4983 24.9676 52.6574 25.9022ZM73.3958 1.26282H69.1476V31H73.3958V1.26282ZM78.008 4.95872H88.2037V31H92.4093V4.95872H102.605V1.26282H78.008V4.95872ZM128.812 31V27.3041H111.48V17.7032H126.391V14.0923H111.48V4.95872H128.218V1.26282H107.232V31H128.812ZM7.62939e-06 18.4615V13.5385H1.23078V12.3077L30.7692 12.3077V13.5385H32V18.4615H30.7692V19.6923L32 19.6923H7.62939e-06V19.6923H1.23078V18.4615H7.62939e-06ZM7.62939e-06 25.8461V30.7692H1.23078V32H30.7692V30.7692H32V25.8461H30.7692V24.6153L1.23078 24.6154V25.8461H7.62939e-06Z" fill="#F5F5F5"/>
<path d="M1.23078 0V-0.123077H1.1077V0H1.23078ZM30.7692 0H30.8923V-0.123077H30.7692V0ZM1.23078 1.23077V1.35385H1.35385V1.23077H1.23078ZM7.62939e-06 1.23077V1.10769H-0.123069V1.23077H7.62939e-06ZM7.62939e-06 6.15382H-0.123069V6.2769H7.62939e-06V6.15382ZM1.23078 6.15382H1.35385V6.03075H1.23078V6.15382ZM1.23078 7.38459V7.50767H1.35385V7.38459H1.23078ZM7.62939e-06 7.38459V7.26152H-0.123069V7.38459H7.62939e-06ZM7.62939e-06 7.38461H-0.123069V7.50769H7.62939e-06V7.38461ZM32 7.38461V7.50769L32 7.26154L32 7.38461ZM30.7692 7.38459H30.6462V7.50767L30.7692 7.50767L30.7692 7.38459ZM30.7692 6.15382V6.03075H30.6462V6.15382H30.7692ZM32 6.15382V6.2769H32.1231V6.15382H32ZM32 1.23077H32.1231V1.10769H32V1.23077ZM30.7692 1.23077H30.6462V1.35385H30.7692V1.23077ZM34.0505 1.26282V1.13974H33.9274V1.26282H34.0505ZM34.0505 31H33.9274V31.1231H34.0505V31ZM54.9514 29.1308L55.0075 29.2404L55.0075 29.2404L54.9514 29.1308ZM60.6015 23.9056L60.496 23.8422L60.4957 23.8426L60.6015 23.9056ZM60.6015 8.39974L60.4954 8.46209L60.4963 8.46365L60.6015 8.39974ZM54.9514 3.13201L55.0075 3.02244L55.0075 3.02244L54.9514 3.13201ZM52.6574 25.9022L52.6017 25.7925L52.601 25.7928L52.6574 25.9022ZM38.2986 27.3041H38.1755V27.4272H38.2986V27.3041ZM38.2986 4.95872V4.83565H38.1755V4.95872H38.2986ZM52.6574 6.36062L52.601 6.47001L52.6017 6.47036L52.6574 6.36062ZM56.9056 10.3114L56.7993 10.3734L56.7997 10.3742L56.9056 10.3114ZM56.9056 21.9939L57.0115 22.0567L57.0119 22.0559L56.9056 21.9939ZM69.1476 1.26282V1.13974H69.0246V1.26282H69.1476ZM73.3958 1.26282H73.5189V1.13974H73.3958V1.26282ZM69.1476 31H69.0246V31.1231H69.1476V31ZM73.3958 31V31.1231H73.5189V31H73.3958ZM88.2037 4.95872H88.3267V4.83565H88.2037V4.95872ZM78.008 4.95872H77.885V5.0818H78.008V4.95872ZM88.2037 31H88.0806V31.1231H88.2037V31ZM92.4093 31V31.1231H92.5324V31H92.4093ZM92.4093 4.95872V4.83565H92.2863V4.95872H92.4093ZM102.605 4.95872V5.0818H102.728V4.95872H102.605ZM102.605 1.26282H102.728V1.13974H102.605V1.26282ZM78.008 1.26282V1.13974H77.885V1.26282H78.008ZM128.812 27.3041H128.936V27.181H128.812V27.3041ZM128.812 31V31.1231H128.936V31H128.812ZM111.48 27.3041H111.357V27.4272H111.48V27.3041ZM111.48 17.7032V17.5802H111.357V17.7032H111.48ZM126.391 17.7032V17.8263H126.514V17.7032H126.391ZM126.391 14.0923H126.514V13.9692H126.391V14.0923ZM111.48 14.0923H111.357V14.2154H111.48V14.0923ZM111.48 4.95872V4.83565H111.357V4.95872H111.48ZM128.218 4.95872V5.0818H128.341V4.95872H128.218ZM128.218 1.26282H128.341V1.13974H128.218V1.26282ZM107.232 1.26282V1.13974H107.109V1.26282H107.232ZM107.232 31H107.109V31.1231H107.232V31ZM7.62939e-06 13.5385V13.4154H-0.123069V13.5385H7.62939e-06ZM7.62939e-06 18.4615H-0.123069V18.5846H7.62939e-06V18.4615ZM1.23078 13.5385V13.6616H1.35385V13.5385H1.23078ZM1.23078 12.3077L1.23078 12.1846L1.1077 12.1846V12.3077H1.23078ZM30.7692 12.3077H30.8923V12.1846L30.7692 12.1846L30.7692 12.3077ZM30.7692 13.5385H30.6462V13.6616H30.7692V13.5385ZM32 13.5385H32.1231V13.4154H32V13.5385ZM32 18.4615V18.5846H32.1231V18.4615H32ZM30.7692 18.4615V18.3385H30.6462V18.4615H30.7692ZM30.7692 19.6923H30.6462V19.8154L30.7692 19.8154L30.7692 19.6923ZM32 19.6923V19.8154L32 19.5692L32 19.6923ZM7.62939e-06 19.6923H-0.123069V19.8154H7.62939e-06V19.6923ZM7.62939e-06 19.6923V19.5692H-0.123069V19.6923H7.62939e-06ZM1.23078 19.6923V19.8154H1.35385V19.6923H1.23078ZM1.23078 18.4615H1.35385V18.3385H1.23078V18.4615ZM7.62939e-06 30.7692H-0.123069V30.8923H7.62939e-06V30.7692ZM7.62939e-06 25.8461V25.723H-0.123069V25.8461H7.62939e-06ZM1.23078 30.7692H1.35385V30.6461H1.23078V30.7692ZM1.23078 32H1.1077V32.123H1.23078V32ZM30.7692 32V32.123H30.8923V32H30.7692ZM30.7692 30.7692V30.6461H30.6462V30.7692H30.7692ZM32 30.7692V30.8923H32.1231V30.7692H32ZM32 25.8461H32.1231V25.723H32V25.8461ZM30.7692 25.8461H30.6462V25.9692H30.7692V25.8461ZM30.7692 24.6153H30.8923V24.4923L30.7692 24.4923L30.7692 24.6153ZM1.23078 24.6154L1.23078 24.4923L1.1077 24.4923V24.6154H1.23078ZM1.23078 25.8461V25.9692H1.35385V25.8461H1.23078ZM1.23078 0.123077H30.7692V-0.123077H1.23078V0.123077ZM1.35385 1.23077V0H1.1077V1.23077H1.35385ZM7.62939e-06 1.35385H1.23078V1.10769H7.62939e-06V1.35385ZM0.123085 6.15382V1.23077H-0.123069V6.15382H0.123085ZM1.23078 6.03075H7.62939e-06V6.2769H1.23078V6.03075ZM1.35385 7.38459V6.15382H1.1077V7.38459H1.35385ZM7.62939e-06 7.50767H1.23078V7.26152H7.62939e-06V7.50767ZM0.123085 7.38461V7.38459H-0.123069V7.38461H0.123085ZM32 7.26154H7.62939e-06V7.50769H32V7.26154ZM30.7692 7.50767L32 7.50769L32 7.26154L30.7692 7.26152L30.7692 7.50767ZM30.6462 6.15382V7.38459H30.8923V6.15382H30.6462ZM32 6.03075H30.7692V6.2769H32V6.03075ZM31.8769 1.23077V6.15382H32.1231V1.23077H31.8769ZM30.7692 1.35385H32V1.10769H30.7692V1.35385ZM30.6462 0V1.23077H30.8923V0H30.6462ZM34.0505 1.38589H46.5826V1.13974H34.0505V1.38589ZM34.1735 31V1.26282H33.9274V31H34.1735ZM46.5826 30.8769H34.0505V31.1231H46.5826V30.8769ZM54.8954 29.0212C52.4795 30.2572 49.7096 30.8769 46.5826 30.8769V31.1231C49.7428 31.1231 52.5521 30.4966 55.0075 29.2404L54.8954 29.0212ZM60.4957 23.8426C59.1771 26.059 57.3115 27.7851 54.8954 29.0212L55.0075 29.2404C57.4627 27.9843 59.3637 26.2268 60.7073 23.9685L60.4957 23.8426ZM62.5176 16.1314C62.5176 19.0286 61.8427 21.5976 60.496 23.8422L60.707 23.9689C62.0791 21.6821 62.7637 19.0684 62.7637 16.1314H62.5176ZM60.4963 8.46365C61.8427 10.6796 62.5176 13.2342 62.5176 16.1314H62.7637C62.7637 13.1944 62.0791 10.5946 60.7067 8.33583L60.4963 8.46365ZM54.8954 3.24158C57.3111 4.47751 59.1767 6.21743 60.4954 8.46209L60.7076 8.3374C59.3642 6.05067 57.4631 4.27877 55.0075 3.02244L54.8954 3.24158ZM46.5826 1.38589C49.7096 1.38589 52.4795 2.00557 54.8954 3.24158L55.0075 3.02244C52.5521 1.76619 49.7428 1.13974 46.5826 1.13974V1.38589ZM46.3277 27.4272C48.7511 27.4272 50.881 26.9567 52.7138 26.0116L52.601 25.7928C50.8088 26.7169 48.7189 27.181 46.3277 27.181V27.4272ZM38.2986 27.4272H46.3277V27.181H38.2986V27.4272ZM38.1755 4.95872V27.3041H38.4217V4.95872H38.1755ZM46.3277 4.83565H38.2986V5.0818H46.3277V4.83565ZM52.7138 6.25123C50.881 5.30615 48.7511 4.83565 46.3277 4.83565V5.0818C48.7189 5.0818 50.8088 5.5459 52.601 6.47001L52.7138 6.25123ZM57.0119 10.2494C56.0081 8.52865 54.574 7.19563 52.7132 6.25087L52.6017 6.47036C54.4226 7.3948 55.8206 8.69564 56.7993 10.3734L57.0119 10.2494ZM58.5155 16.1314C58.5155 13.9033 58.0154 11.9411 57.0115 10.2486L56.7997 10.3742C57.7782 12.0237 58.2694 13.9414 58.2694 16.1314H58.5155ZM57.0119 22.0559C58.0154 20.3356 58.5155 18.3595 58.5155 16.1314H58.2694C58.2694 18.3214 57.7782 20.2537 56.7993 21.9319L57.0119 22.0559ZM52.7132 26.0119C54.5735 25.0675 56.0075 23.749 57.0115 22.0567L56.7997 21.9311C55.8212 23.5807 54.4231 24.8677 52.6017 25.7925L52.7132 26.0119ZM69.1476 1.38589H73.3958V1.13974H69.1476V1.38589ZM69.2707 31V1.26282H69.0246V31H69.2707ZM73.3958 30.8769H69.1476V31.1231H73.3958V30.8769ZM73.2727 1.26282V31H73.5189V1.26282H73.2727ZM88.2037 4.83565H78.008V5.0818H88.2037V4.83565ZM88.3267 31V4.95872H88.0806V31H88.3267ZM92.4093 30.8769H88.2037V31.1231H92.4093V30.8769ZM92.2863 4.95872V31H92.5324V4.95872H92.2863ZM102.605 4.83565H92.4093V5.0818H102.605V4.83565ZM102.482 1.26282V4.95872H102.728V1.26282H102.482ZM78.008 1.38589H102.605V1.13974H78.008V1.38589ZM78.1311 4.95872V1.26282H77.885V4.95872H78.1311ZM128.689 27.3041V31H128.936V27.3041H128.689ZM111.48 27.4272H128.812V27.181H111.48V27.4272ZM111.357 17.7032V27.3041H111.603V17.7032H111.357ZM126.391 17.5802H111.48V17.8263H126.391V17.5802ZM126.268 14.0923V17.7032H126.514V14.0923H126.268ZM111.48 14.2154H126.391V13.9692H111.48V14.2154ZM111.357 4.95872V14.0923H111.603V4.95872H111.357ZM128.218 4.83565H111.48V5.0818H128.218V4.83565ZM128.095 1.26282V4.95872H128.341V1.26282H128.095ZM107.232 1.38589H128.218V1.13974H107.232V1.38589ZM107.355 31V1.26282H107.109V31H107.355ZM128.812 30.8769H107.232V31.1231H128.812V30.8769ZM-0.123069 13.5385V18.4615H0.123085V13.5385H-0.123069ZM1.23078 13.4154H7.62939e-06V13.6616H1.23078V13.4154ZM1.1077 12.3077V13.5385H1.35385V12.3077H1.1077ZM30.7692 12.1846L1.23078 12.1846L1.23078 12.4308L30.7692 12.4308L30.7692 12.1846ZM30.8923 13.5385V12.3077H30.6462V13.5385H30.8923ZM32 13.4154H30.7692V13.6616H32V13.4154ZM32.1231 18.4615V13.5385H31.8769V18.4615H32.1231ZM30.7692 18.5846H32V18.3385H30.7692V18.5846ZM30.8923 19.6923V18.4615H30.6462V19.6923H30.8923ZM32 19.5692L30.7692 19.5692L30.7692 19.8154L32 19.8154L32 19.5692ZM7.62939e-06 19.8154H32V19.5692H7.62939e-06V19.8154ZM-0.123069 19.6923V19.6923H0.123085V19.6923H-0.123069ZM1.23078 19.5692H7.62939e-06V19.8154H1.23078V19.5692ZM1.1077 18.4615V19.6923H1.35385V18.4615H1.1077ZM7.62939e-06 18.5846H1.23078V18.3385H7.62939e-06V18.5846ZM0.123085 30.7692V25.8461H-0.123069V30.7692H0.123085ZM1.23078 30.6461H7.62939e-06V30.8923H1.23078V30.6461ZM1.35385 32V30.7692H1.1077V32H1.35385ZM30.7692 31.8769H1.23078V32.123H30.7692V31.8769ZM30.6462 30.7692V32H30.8923V30.7692H30.6462ZM32 30.6461H30.7692V30.8923H32V30.6461ZM31.8769 25.8461V30.7692H32.1231V25.8461H31.8769ZM30.7692 25.9692H32V25.723H30.7692V25.9692ZM30.6462 24.6153V25.8461H30.8923V24.6153H30.6462ZM1.23078 24.7384L30.7692 24.7384L30.7692 24.4923L1.23078 24.4923L1.23078 24.7384ZM1.1077 24.6154V25.8461H1.35385V24.6154H1.1077ZM1.23078 25.723H7.62939e-06V25.9692H1.23078V25.723Z" fill="#18A0FB" mask="url(#path-1-inside-1)"/>
</svg>
