<svg width="32" height="32" viewBox="0 0 32 32" fill="none" xmlns="http://www.w3.org/2000/svg">
<path d="M20.394 13.675C20.3929 14.2913 20.1476 14.8821 19.7119 15.3179C19.2761 15.7536 18.6853 15.9989 18.069 16H13.675V11.35H18.069C18.6853 11.3511 19.2761 11.5964 19.7119 12.0321C20.1476 12.4679 20.3929 13.0587 20.394 13.675ZM31.5 16C31.5 24.563 24.562 31.5 16 31.5C7.438 31.5 0.5 24.562 0.5 16C0.5 7.437 7.438 0.5 16 0.5C24.562 0.5 31.5 7.438 31.5 16ZM23.494 13.675C23.4932 12.2364 22.9214 10.857 21.9042 9.83982C20.887 8.82261 19.5076 8.25079 18.069 8.25H10.575V23.75H13.675V19.1H18.069C19.5076 19.0992 20.887 18.5274 21.9042 17.5102C22.9214 16.493 23.4932 15.1136 23.494 13.675Z" fill="white"/>
</svg>
