<svg width="64" height="64" viewBox="0 0 64 64" fill="none" xmlns="http://www.w3.org/2000/svg">
<rect x="1.33333" y="1.33333" width="61.3333" height="61.3333" rx="14.6667" stroke="#18A0FB" stroke-width="2.66667"/>
<path d="M44.375 32.855V32V31.1338L46.535 29.2438C46.9332 28.8928 47.1945 28.4124 47.2727 27.8875C47.3509 27.3625 47.2411 26.8268 46.9625 26.375L44.3075 21.875C44.1103 21.5333 43.8266 21.2495 43.485 21.052C43.1434 20.8546 42.7559 20.7504 42.3613 20.75C42.1168 20.7482 41.8736 20.7862 41.6413 20.8625L38.9075 21.785C38.4356 21.4714 37.9432 21.1895 37.4338 20.9413L36.86 18.1063C36.7572 17.5883 36.4754 17.1231 36.0641 16.7919C35.6527 16.4608 35.138 16.2849 34.61 16.295H29.345C28.8171 16.2849 28.3024 16.4608 27.891 16.7919C27.4797 17.1231 27.1979 17.5883 27.095 18.1063L26.5213 20.9413C26.0082 21.1895 25.5121 21.4713 25.0363 21.785L22.3588 20.8175C22.124 20.7564 21.8809 20.7336 21.6388 20.75C21.2442 20.7504 20.8567 20.8546 20.5151 21.052C20.1735 21.2495 19.8898 21.5333 19.6925 21.875L17.0375 26.375C16.775 26.8261 16.6774 27.3545 16.7615 27.8697C16.8457 28.3848 17.1063 28.8547 17.4988 29.1988L19.625 31.145V32.8663L17.4988 34.7563C17.0952 35.1028 16.8275 35.5811 16.743 36.1062C16.6586 36.6314 16.7629 37.1695 17.0375 37.625L19.6925 42.125C19.8898 42.4667 20.1735 42.7506 20.5151 42.948C20.8567 43.1455 21.2442 43.2496 21.6388 43.25C21.8833 43.2519 22.1265 43.2139 22.3588 43.1375L25.0925 42.215C25.5645 42.5287 26.0569 42.8105 26.5663 43.0588L27.14 45.8938C27.2429 46.4117 27.5247 46.877 27.936 47.2081C28.3474 47.5392 28.8621 47.7151 29.39 47.705H34.7C35.228 47.7151 35.7427 47.5392 36.1541 47.2081C36.5654 46.877 36.8472 46.4117 36.95 45.8938L37.5238 43.0588C38.0369 42.8106 38.5329 42.5287 39.0088 42.215L41.7313 43.1375C41.9636 43.2139 42.2068 43.2519 42.4513 43.25C42.8459 43.2496 43.2334 43.1455 43.575 42.948C43.9166 42.7506 44.2003 42.4667 44.3975 42.125L46.9625 37.625C47.2251 37.1739 47.3227 36.6455 47.2386 36.1304C47.1544 35.6153 46.8938 35.1454 46.5013 34.8013L44.375 32.855ZM42.3613 41L38.5025 39.695C37.5992 40.4602 36.5669 41.0582 35.4538 41.4613L34.655 45.5H29.345L28.5463 41.5063C27.442 41.0918 26.4152 40.4947 25.5088 39.74L21.6388 41L18.9838 36.5L22.0438 33.8C21.8358 32.6355 21.8358 31.4433 22.0438 30.2788L18.9838 27.5L21.6388 23L25.4975 24.305C26.4008 23.5399 27.4332 22.9418 28.5463 22.5388L29.345 18.5H34.655L35.4538 22.4938C36.5581 22.9083 37.5849 23.5053 38.4913 24.26L42.3613 23L45.0163 27.5L41.9563 30.2C42.1643 31.3646 42.1643 32.5567 41.9563 33.7213L45.0163 36.5L42.3613 41Z" fill="#F5F5F5"/>
<path d="M32 38.75C30.665 38.75 29.3599 38.3541 28.2499 37.6124C27.1399 36.8707 26.2747 35.8165 25.7638 34.5831C25.2529 33.3497 25.1193 31.9925 25.3797 30.6831C25.6402 29.3738 26.283 28.171 27.227 27.227C28.171 26.283 29.3738 25.6402 30.6831 25.3797C31.9925 25.1193 33.3497 25.2529 34.5831 25.7638C35.8165 26.2747 36.8707 27.1399 37.6124 28.2499C38.3541 29.3599 38.75 30.665 38.75 32C38.759 32.8889 38.5906 33.7707 38.2546 34.5938C37.9186 35.4168 37.4217 36.1645 36.7931 36.7931C36.1645 37.4217 35.4168 37.9186 34.5938 38.2546C33.7707 38.5906 32.8889 38.759 32 38.75V38.75ZM32 27.5C31.4053 27.4861 30.8139 27.5931 30.2617 27.8143C29.7094 28.0356 29.2078 28.3665 28.7872 28.7872C28.3665 29.2078 28.0356 29.7094 27.8143 30.2617C27.5931 30.8139 27.4861 31.4053 27.5 32C27.4861 32.5947 27.5931 33.1861 27.8143 33.7383C28.0356 34.2906 28.3665 34.7922 28.7872 35.2128C29.2078 35.6335 29.7094 35.9644 30.2617 36.1857C30.8139 36.4069 31.4053 36.5139 32 36.5C32.5947 36.5139 33.1861 36.4069 33.7383 36.1857C34.2906 35.9644 34.7922 35.6335 35.2128 35.2128C35.6335 34.7922 35.9644 34.2906 36.1857 33.7383C36.4069 33.1861 36.5139 32.5947 36.5 32C36.5139 31.4053 36.4069 30.8139 36.1857 30.2617C35.9644 29.7094 35.6335 29.2078 35.2128 28.7872C34.7922 28.3665 34.2906 28.0356 33.7383 27.8143C33.1861 27.5931 32.5947 27.4861 32 27.5Z" fill="#F5F5F5"/>
</svg>
