<svg width="64" height="64" viewBox="0 0 64 64" fill="none" xmlns="http://www.w3.org/2000/svg">
<rect x="1.33333" y="1.33333" width="61.3333" height="61.3333" rx="14.6667" stroke="#18A0FB" stroke-width="2.66667"/>
<path fill-rule="evenodd" clip-rule="evenodd" d="M18.5 21.875C18.5 22.7701 18.8556 23.6286 19.4885 24.2615C20.1215 24.8944 20.9799 25.25 21.875 25.25H25.25V21.875C25.25 21.4318 25.1627 20.9929 24.9931 20.5834C24.8235 20.174 24.5749 19.8019 24.2615 19.4885C23.9481 19.1751 23.576 18.9265 23.1666 18.7569C22.7571 18.5873 22.3182 18.5 21.875 18.5C21.4318 18.5 20.9929 18.5873 20.5834 18.7569C20.174 18.9265 19.8019 19.1751 19.4885 19.4885C19.1751 19.8019 18.9265 20.174 18.7569 20.5834C18.5873 20.9929 18.5 21.4318 18.5 21.875V21.875ZM27.5 27.5V21.875C27.5 20.7625 27.1701 19.6749 26.552 18.7499C25.9339 17.8249 25.0554 17.1039 24.0276 16.6782C22.9998 16.2524 21.8688 16.141 20.7776 16.3581C19.6865 16.5751 18.6842 17.1109 17.8975 17.8975C17.1109 18.6842 16.5751 19.6865 16.3581 20.7776C16.141 21.8688 16.2524 22.9998 16.6782 24.0276C17.1039 25.0554 17.8249 25.9339 18.7499 26.552C19.6749 27.1701 20.7625 27.5 21.875 27.5H27.5ZM45.5 21.875C45.5 22.7701 45.1444 23.6286 44.5115 24.2615C43.8786 24.8944 43.0201 25.25 42.125 25.25H38.75V21.875C38.75 20.9799 39.1056 20.1215 39.7385 19.4885C40.3715 18.8556 41.2299 18.5 42.125 18.5C43.0201 18.5 43.8786 18.8556 44.5115 19.4885C45.1444 20.1215 45.5 20.9799 45.5 21.875V21.875ZM36.5 27.5V21.875C36.5 20.7625 36.8299 19.6749 37.448 18.7499C38.0661 17.8249 38.9446 17.1039 39.9724 16.6782C41.0002 16.2524 42.1312 16.141 43.2224 16.3581C44.3135 16.5751 45.3158 17.1109 46.1025 17.8975C46.8892 18.6842 47.4249 19.6865 47.6419 20.7776C47.859 21.8688 47.7476 22.9998 47.3218 24.0276C46.8961 25.0554 46.1751 25.9339 45.2501 26.552C44.3251 27.1701 43.2375 27.5 42.125 27.5H36.5ZM18.5 42.125C18.5 41.2299 18.8556 40.3715 19.4885 39.7385C20.1215 39.1056 20.9799 38.75 21.875 38.75H25.25V42.125C25.25 43.0201 24.8944 43.8786 24.2615 44.5115C23.6286 45.1444 22.7701 45.5 21.875 45.5C20.9799 45.5 20.1215 45.1444 19.4885 44.5115C18.8556 43.8786 18.5 43.0201 18.5 42.125V42.125ZM27.5 36.5V42.125C27.5 43.2375 27.1701 44.3251 26.552 45.2501C25.9339 46.1751 25.0554 46.8961 24.0276 47.3218C22.9998 47.7476 21.8688 47.859 20.7776 47.6419C19.6865 47.4249 18.6842 46.8892 17.8975 46.1025C17.1109 45.3158 16.5751 44.3135 16.3581 43.2224C16.141 42.1312 16.2524 41.0002 16.6782 39.9724C17.1039 38.9446 17.8249 38.0661 18.7499 37.448C19.6749 36.8299 20.7625 36.5 21.875 36.5H27.5ZM45.5 42.125C45.5 41.2299 45.1444 40.3715 44.5115 39.7385C43.8786 39.1056 43.0201 38.75 42.125 38.75H38.75V42.125C38.75 43.0201 39.1056 43.8786 39.7385 44.5115C40.3715 45.1444 41.2299 45.5 42.125 45.5C43.0201 45.5 43.8786 45.1444 44.5115 44.5115C45.1444 43.8786 45.5 43.0201 45.5 42.125V42.125ZM36.5 36.5V42.125C36.5 43.2375 36.8299 44.3251 37.448 45.2501C38.0661 46.1751 38.9446 46.8961 39.9724 47.3218C41.0002 47.7476 42.1312 47.859 43.2224 47.6419C44.3135 47.4249 45.3158 46.8892 46.1025 46.1025C46.8892 45.3158 47.4249 44.3135 47.6419 43.2224C47.859 42.1312 47.7476 41.0002 47.3218 39.9724C46.8961 38.9446 46.1751 38.0661 45.2501 37.448C44.3251 36.8299 43.2375 36.5 42.125 36.5H36.5Z" fill="#F5F5F5"/>
<path fill-rule="evenodd" clip-rule="evenodd" d="M36.5 27.5H27.5V36.5H36.5V27.5ZM25.25 25.25V38.75H38.75V25.25H25.25Z" fill="#F5F5F5"/>
</svg>
