<svg width="64" height="64" viewBox="0 0 64 64" fill="none" xmlns="http://www.w3.org/2000/svg">
<rect x="1.33333" y="1.33333" width="61.3333" height="61.3333" rx="14.6667" stroke="#18A0FB" stroke-width="2.66667"/>
<path d="M44 20H20C19.6022 20 19.2206 20.158 18.9393 20.4393C18.658 20.7206 18.5 21.1022 18.5 21.5V26C18.5 26.3978 18.658 26.7794 18.9393 27.0607C19.2206 27.342 19.6022 27.5 20 27.5C20.3978 27.5 20.7794 27.342 21.0607 27.0607C21.342 26.7794 21.5 26.3978 21.5 26V23H30.5V42.5H27.5C27.1022 42.5 26.7206 42.658 26.4393 42.9393C26.158 43.2206 26 43.6022 26 44C26 44.3978 26.158 44.7794 26.4393 45.0607C26.7206 45.342 27.1022 45.5 27.5 45.5H36.5C36.8978 45.5 37.2794 45.342 37.5607 45.0607C37.842 44.7794 38 44.3978 38 44C38 43.6022 37.842 43.2206 37.5607 42.9393C37.2794 42.658 36.8978 42.5 36.5 42.5H33.5V23H42.5V26C42.5 26.3978 42.658 26.7794 42.9393 27.0607C43.2206 27.342 43.6022 27.5 44 27.5C44.3978 27.5 44.7794 27.342 45.0607 27.0607C45.342 26.7794 45.5 26.3978 45.5 26V21.5C45.5 21.1022 45.342 20.7206 45.0607 20.4393C44.7794 20.158 44.3978 20 44 20Z" fill="#F5F5F5"/>
</svg>
